<?xml version="1.0" standalone="no"?>
<!DOCTYPE svg PUBLIC "-//W3C//DTD SVG 20010904//EN"
 "http://www.w3.org/TR/2001/REC-SVG-20010904/DTD/svg10.dtd">
<svg version="1.0" xmlns="http://www.w3.org/2000/svg"
 width="1280.000000pt" height="684.000000pt" viewBox="0 0 1280.000000 684.000000"
 preserveAspectRatio="xMidYMid meet">
<g transform="translate(0.000000,684.000000) scale(0.100000,-0.100000)"
fill="#87CEEB" stroke="none">
<path d="M6596 6748 c-3 -18 -10 -310 -16 -648 -20 -1097 -27 -1380 -34 -1387
-11 -11 -21 11 -51 103 -28 89 -40 106 -50 74 -10 -31 -37 -21 -57 20 -18 37
-44 298 -123 1224 -20 231 -37 421 -39 423 -5 5 -15 -505 -26 -1312 -6 -412
-13 -799 -16 -860 l-6 -110 -77 -155 c-42 -85 -81 -156 -88 -158 -7 -2 -21 15
-32 37 -18 34 -21 59 -21 163 0 112 -57 816 -67 828 -2 3 -13 -6 -24 -20 -14
-19 -21 -22 -27 -12 -5 7 -19 108 -31 225 -13 117 -24 213 -25 215 -9 8 -16
-224 -16 -497 l-1 -316 -37 -149 c-23 -92 -44 -153 -54 -159 -24 -16 -47 -1
-68 45 -17 38 -20 67 -20 248 l0 205 -40 120 c-23 70 -50 184 -65 275 -14 85
-28 156 -31 159 -2 2 -4 -214 -4 -482 l0 -486 -76 -193 c-42 -106 -82 -199
-90 -207 -16 -18 -12 -29 -59 154 -32 123 -45 213 -105 743 -61 546 -80 681
-80 581 0 -19 -9 -185 -20 -370 -14 -244 -29 -404 -55 -585 -19 -137 -38 -260
-41 -274 -5 -23 -7 -24 -19 -7 -7 10 -28 77 -45 150 -22 86 -48 162 -76 219
l-44 88 0 598 0 598 -46 204 c-44 199 -54 234 -54 194 -2 -183 -41 -1358 -45
-1363 -4 -3 -15 4 -25 17 l-19 23 -15 -30 c-13 -23 -16 -65 -16 -188 0 -157 0
-160 -38 -273 -22 -63 -43 -115 -47 -114 -5 0 -18 13 -30 28 -17 23 -20 44
-22 134 -1 59 -8 416 -14 795 -7 378 -15 687 -19 687 -4 0 -10 -73 -13 -162
-50 -1332 -50 -1332 -70 -1326 -7 3 -28 33 -46 69 -34 63 -36 70 -78 414 -23
193 -43 361 -43 375 l-2 25 -8 -25 c-4 -14 -16 -252 -25 -530 l-17 -505 -75
-259 c-41 -143 -76 -263 -79 -268 -12 -19 -33 -5 -48 32 -14 35 -16 100 -16
486 0 427 -1 446 -20 484 -11 22 -22 40 -25 40 -2 0 -13 -20 -24 -45 -23 -52
-40 -56 -64 -16 -16 27 -23 94 -63 591 -8 92 -8 94 -16 45 -4 -27 -21 -408
-38 -845 -17 -437 -33 -810 -36 -827 -6 -40 -18 -42 -40 -8 -18 27 -16 -13
-44 855 l-12 345 -59 245 c-56 234 -77 304 -78 270 -40 -815 -72 -1385 -80
-1393 -6 -6 -14 -2 -23 12 -17 27 -25 26 -70 -4 -46 -31 -68 -32 -68 -2 0 12
-13 281 -30 597 -16 316 -38 769 -50 1005 -11 237 -23 450 -26 474 -19 145
-24 -82 -24 -1054 l-1 -1070 -33 -95 c-18 -52 -38 -96 -44 -98 -6 -2 -21 11
-32 30 -17 28 -20 50 -20 154 0 113 -26 443 -36 453 -2 2 -24 -10 -49 -28 -25
-18 -49 -30 -54 -27 -5 4 -31 43 -58 89 -46 79 -48 86 -53 175 l-5 94 -39 -31
c-22 -17 -44 -30 -50 -28 -15 5 -20 55 -56 507 -41 520 -42 531 -47 526 -2 -2
-10 -79 -18 -171 -20 -235 -29 -237 -56 -13 -11 84 -21 158 -23 163 -3 6 -5
-174 -5 -400 l-1 -410 -35 -129 c-22 -83 -41 -136 -55 -148 -15 -14 -20 -31
-20 -74 0 -53 -21 -114 -39 -114 -5 0 -16 11 -25 25 -14 21 -16 66 -17 327 0
287 -1 307 -23 373 l-22 70 -7 -205 c-4 -113 -12 -302 -17 -420 -5 -118 -19
-435 -30 -705 -15 -348 -25 -492 -33 -497 -19 -12 -53 -9 -65 5 -5 6 -38 232
-71 501 -34 270 -63 492 -66 494 -2 2 -14 -30 -26 -72 -12 -42 -27 -76 -34
-76 -13 0 -18 35 -56 348 -12 100 -26 182 -31 182 -4 0 -8 -125 -8 -277 -1
-255 -3 -294 -29 -467 -16 -103 -34 -193 -39 -198 -6 -6 -15 -2 -26 13 -14 20
-16 60 -16 282 l0 259 -29 -7 c-35 -8 -34 -11 -57 150 -17 121 -33 179 -34
120 0 -42 -38 -749 -46 -868 -4 -53 -10 -100 -15 -103 -9 -5 -25 49 -34 121
-9 75 -21 87 -36 37 -7 -23 -17 -42 -24 -42 -31 0 -35 25 -35 240 l0 216 -33
44 -32 44 -6 161 c-3 88 -12 196 -20 240 l-13 80 -7 -45 c-5 -25 -17 -292 -29
-595 -11 -302 -23 -565 -26 -584 -10 -64 -25 -15 -49 159 -13 94 -26 174 -29
177 -2 3 -12 -9 -21 -26 -8 -17 -22 -31 -30 -31 -24 0 -35 35 -35 117 0 75 -2
82 -44 153 l-44 75 -17 245 c-10 135 -19 246 -20 248 -6 7 -15 -255 -21 -601
-4 -220 -11 -380 -16 -383 -6 -4 -16 0 -24 8 -15 14 -18 60 -49 708 -16 323
-25 400 -46 400 -5 0 -9 -127 -9 -282 0 -260 -2 -295 -26 -433 -15 -82 -30
-154 -34 -159 -5 -4 -27 6 -49 25 l-41 32 -1 121 c-1 145 -32 411 -42 356 -3
-19 -13 -240 -22 -490 -20 -577 -22 -610 -45 -610 -38 0 -57 57 -95 288 -29
177 -45 202 -91 145 -14 -17 -26 -24 -37 -20 -14 5 -17 21 -17 80 0 68 -10 97
-32 97 -4 0 -8 -338 -8 -752 0 -453 4 -748 9 -743 5 6 19 71 31 144 12 74 24
139 27 144 9 15 48 25 69 16 26 -9 24 -18 53 293 l19 198 32 37 c46 53 56 57
74 31 13 -19 16 -61 17 -263 0 -225 29 -798 40 -810 3 -3 13 84 23 192 9 109
21 202 26 207 7 7 18 -9 32 -42 12 -29 28 -52 34 -52 7 0 16 -5 20 -11 5 -9
43 -419 44 -478 0 -8 2 -12 5 -9 3 3 17 157 31 344 28 377 66 749 77 760 4 4
15 0 24 -9 16 -15 18 -67 26 -515 7 -465 15 -625 25 -562 2 14 10 29 18 33 9
5 14 26 14 58 0 27 7 65 15 85 8 19 26 114 40 212 35 240 38 247 71 170 l17
-43 8 40 c4 22 18 162 30 310 11 149 26 275 31 280 6 7 14 4 23 -8 16 -22 23
-153 30 -587 8 -504 17 -777 25 -755 17 48 65 361 94 614 19 173 35 276 43
278 6 2 19 -19 29 -49 l18 -53 17 218 c9 120 20 221 24 225 4 4 15 -3 24 -14
16 -20 19 -77 31 -595 7 -316 16 -594 19 -619 6 -43 8 -39 25 65 10 61 21 114
24 119 3 5 16 -4 28 -19 13 -16 25 -27 28 -24 3 3 13 158 21 345 9 186 20 343
25 348 4 4 16 -3 25 -17 14 -22 19 -95 35 -474 11 -246 23 -504 27 -573 l7
-125 8 105 c4 58 10 164 14 235 l6 130 65 61 65 61 19 324 c15 271 68 811 84
857 8 24 76 10 98 -19 21 -29 20 -12 57 -1129 15 -483 23 -651 27 -646 2 2 15
75 28 161 13 87 26 160 29 162 12 12 25 -12 41 -78 l18 -71 15 32 c9 19 21 30
31 28 16 -3 27 -111 56 -556 4 -61 11 -112 15 -112 4 0 12 43 18 96 6 53 13
99 16 102 3 3 15 -3 26 -13 11 -10 20 -15 20 -11 0 66 93 1053 100 1060 13 13
14 9 50 -179 33 -171 48 -223 49 -170 1 33 65 144 84 146 26 3 43 -4 78 -32
49 -38 59 -37 59 9 0 57 69 784 74 790 11 10 36 -22 45 -57 5 -20 12 -225 15
-456 3 -231 11 -703 17 -1050 12 -630 12 -630 35 -684 14 -30 26 -52 28 -50 3
2 12 270 20 594 9 325 18 631 20 682 5 88 60 623 71 691 7 38 27 42 43 7 19
-42 32 -29 32 33 0 62 25 127 50 127 8 0 23 -16 32 -35 17 -33 18 -98 18 -933
0 -888 0 -899 22 -984 16 -64 23 -82 29 -67 4 10 8 115 8 232 l1 213 54 58 55
57 31 734 c17 404 34 809 38 899 7 173 16 200 46 142 13 -25 16 -73 16 -278 0
-136 14 -579 30 -983 16 -404 30 -757 31 -785 1 -91 16 -10 28 151 l11 150 57
135 56 134 38 540 c21 297 39 551 41 565 4 37 37 38 65 4 22 -27 25 -28 37
-11 20 26 34 21 56 -23 17 -32 20 -59 20 -152 0 -148 58 -1500 65 -1506 3 -3
5 10 6 29 0 19 15 207 32 418 23 275 36 386 44 389 8 2 34 -41 68 -113 l55
-117 0 -104 c0 -95 56 -976 64 -999 4 -13 14 354 26 995 6 289 13 541 17 560
l6 35 8 -30 c5 -16 18 -151 29 -300 22 -282 28 -327 30 -235 1 59 67 261 87
267 7 3 14 -20 17 -59 7 -74 56 -1015 56 -1073 0 -66 16 -26 28 70 12 95 27
276 92 1129 22 291 43 533 47 539 13 21 22 -26 58 -273 20 -140 54 -327 76
-415 21 -88 53 -259 69 -380 17 -121 35 -229 40 -240 21 -50 38 56 74 460 35
401 105 905 128 930 7 7 15 2 25 -12 9 -13 19 -23 22 -23 4 0 20 27 36 60 16
33 35 60 42 60 7 0 21 -17 32 -38 18 -36 20 -77 31 -618 7 -318 15 -622 18
-674 l7 -95 53 140 52 140 0 487 0 488 42 85 c24 47 47 84 53 82 26 -9 49 -72
52 -146 13 -265 63 -1458 63 -1495 0 -25 4 -46 8 -46 4 0 22 29 39 64 18 36
40 67 51 70 24 8 21 -30 68 901 19 390 39 714 43 718 11 11 14 6 42 -78 l23
-70 7 48 c8 51 38 111 54 109 6 -1 18 -16 28 -34 16 -31 17 -107 17 -1183 l0
-1150 26 -80 c15 -44 30 -84 35 -89 5 -6 9 27 9 78 0 49 9 141 20 205 10 64
33 247 50 406 71 676 90 839 98 847 12 12 14 9 43 -77 l24 -70 5 85 c5 82 28
150 50 150 14 0 17 -47 55 -870 20 -432 39 -787 41 -789 2 -2 7 -1 12 3 4 4 9
357 12 784 l6 777 36 135 c21 74 41 136 46 138 28 9 42 38 66 137 43 175 46
185 60 185 40 0 41 -7 46 -1125 l5 -1070 28 -3 27 -3 0 276 0 277 44 141 44
142 11 330 c6 182 14 416 17 520 7 280 14 313 49 245 9 -16 22 -30 30 -30 12
0 15 21 15 123 0 122 30 341 49 360 17 17 46 1 68 -38 22 -41 34 -219 89
-1380 8 -169 15 -238 24 -229 8 9 17 352 41 1594 7 358 15 599 21 605 7 7 15
2 25 -13 l16 -23 18 31 c27 43 66 42 73 -2 3 -18 17 -298 32 -623 14 -324 29
-626 33 -670 l7 -80 13 47 c8 27 17 48 22 48 17 0 14 46 71 -1098 6 -133 15
-239 18 -235 4 5 21 211 39 459 28 403 92 1105 107 1177 8 37 20 26 28 -25 22
-159 81 -814 111 -1243 37 -529 40 -555 54 -555 10 0 14 60 51 800 114 2292
117 2341 128 2352 6 6 18 8 28 6 72 -13 99 -277 114 -1103 16 -893 23 -1123
32 -1090 4 17 26 176 48 354 22 179 44 329 49 334 17 17 17 20 57 -823 9 -195
20 -359 24 -363 4 -4 13 61 19 145 7 84 30 276 52 427 21 151 39 276 39 278 0
1 6 3 13 3 7 0 20 -13 30 -29 14 -24 17 -55 17 -182 l0 -152 59 -106 59 -106
36 -275 c20 -151 36 -278 36 -282 0 -5 5 -8 10 -8 6 0 10 128 10 363 l0 362
39 229 c22 126 44 233 49 238 6 6 15 2 25 -12 l15 -22 16 30 c11 21 16 58 16
114 0 93 64 536 79 551 15 15 18 -22 46 -522 14 -255 27 -466 29 -468 3 -4 7
111 26 725 5 166 12 307 15 312 13 21 46 9 65 -22 19 -32 20 -52 20 -498 1
-438 2 -482 29 -748 27 -263 41 -351 41 -256 0 35 22 611 50 1284 5 135 19
484 31 775 11 292 24 534 29 539 13 13 50 -54 50 -89 0 -16 5 -124 10 -240 18
-363 29 -601 41 -870 6 -143 13 -262 15 -264 3 -3 10 1 16 7 20 20 33 14 51
-23 15 -32 17 -94 17 -640 0 -333 3 -605 6 -605 3 0 14 5 25 10 17 9 19 22 19
98 0 76 27 547 100 1777 12 187 26 436 33 552 14 225 22 260 52 203 19 -36 16
23 65 -1610 11 -385 21 -622 25 -618 2 2 15 91 29 198 21 158 29 301 46 755
39 1055 49 1298 56 1304 3 3 14 -5 25 -18 18 -22 19 -42 19 -308 0 -248 3
-311 26 -481 23 -179 34 -238 34 -186 0 10 7 172 15 359 8 187 15 350 15 363
0 46 29 18 93 -91 l66 -112 10 -570 c6 -314 14 -733 17 -933 8 -394 5 -378 64
-347 l30 16 1 512 0 512 32 89 c18 49 37 91 44 93 6 3 19 -9 27 -26 14 -26 16
-101 16 -571 0 -425 3 -540 13 -540 6 0 39 15 72 33 l60 32 5 95 c5 92 18 136
46 153 10 5 14 30 15 80 0 88 30 259 45 264 6 2 21 -24 34 -57 12 -33 24 -59
27 -57 2 3 15 105 29 228 28 257 30 269 46 269 34 0 37 -31 38 -326 l0 -292
48 -31 c27 -17 52 -31 55 -31 4 0 7 32 7 70 0 42 6 82 14 99 11 20 19 121 31
391 l17 364 29 58 c16 33 36 61 44 65 11 4 15 22 15 68 0 70 26 214 42 230 7
7 15 2 25 -12 9 -13 19 -23 23 -23 4 0 10 39 13 88 10 146 37 198 65 124 6
-16 15 -290 22 -662 6 -349 14 -642 16 -650 4 -10 16 2 37 35 37 60 33 -2 47
715 6 300 13 561 16 580 5 32 7 33 19 17 7 -10 16 -41 20 -68 8 -58 18 -68 33
-34 14 29 37 32 51 7 8 -15 31 -436 31 -561 0 -65 11 8 40 259 32 290 34 300
49 300 10 0 10 -1 42 -153 12 -60 25 -105 29 -100 4 4 18 139 30 298 12 160
26 294 31 299 5 5 14 4 23 -3 13 -11 17 -7 30 23 17 40 40 47 56 17 5 -11 15
-173 22 -372 10 -304 14 -348 25 -323 7 16 27 60 43 98 22 50 34 66 42 58 9
-9 37 -222 38 -286 0 -11 2 -17 5 -14 3 2 14 153 25 334 15 238 25 337 35 357
8 16 15 44 15 62 0 42 19 85 36 85 31 0 34 -42 34 -462 1 -344 3 -420 13 -406
9 11 19 128 31 390 28 564 29 573 46 573 8 0 19 -17 26 -40 11 -36 13 -24 13
108 1 81 -2 147 -5 147 -3 0 -14 -4 -24 -10 -32 -17 -46 10 -53 102 -3 46 -14
248 -23 451 -10 202 -21 367 -24 367 -3 0 -11 -180 -17 -401 -6 -241 -15 -405
-21 -411 -6 -6 -17 13 -32 59 -13 37 -29 77 -35 88 -8 12 -17 103 -25 225 -6
113 -14 207 -16 209 -2 2 -4 -43 -4 -101 l0 -105 -36 -46 c-43 -55 -61 -59
-69 -14 -10 62 -25 162 -25 171 0 5 -3 6 -6 3 -4 -3 -16 -120 -28 -258 -21
-255 -30 -291 -56 -229 -12 28 -30 41 -30 21 0 -5 -8 -12 -17 -15 -31 -12 -43
21 -43 119 0 60 -6 109 -17 141 l-17 49 -15 -85 c-12 -64 -20 -86 -33 -88 -25
-5 -36 48 -48 228 -11 162 -17 180 -62 180 -15 0 -18 -9 -18 -57 0 -75 -25
-128 -60 -128 -22 0 -26 -5 -30 -44 -6 -54 -32 -76 -54 -46 -13 17 -15 70 -16
324 0 276 -3 326 -30 545 -32 262 -40 310 -45 305 -2 -2 -15 -242 -30 -534
-14 -291 -28 -536 -30 -542 -9 -27 -23 -11 -35 37 -13 55 -20 61 -35 28 -14
-32 -42 -35 -51 -6 -4 13 -15 43 -26 67 -14 34 -21 42 -30 33 -18 -18 -26 -15
-43 18 -13 24 -15 83 -15 357 l0 328 -34 105 c-38 119 -35 122 -56 -70 -11
-97 -21 -132 -35 -118 -3 3 -13 45 -22 92 -9 48 -19 84 -23 79 -4 -4 -13 -145
-20 -313 -6 -168 -15 -309 -20 -313 -4 -5 -15 2 -24 14 -13 20 -16 55 -16 209
0 149 -4 199 -19 258 -11 41 -21 76 -24 78 -2 3 -12 -7 -21 -21 -9 -14 -21
-25 -27 -25 -18 0 -49 84 -49 135 0 43 -9 65 -65 160 -36 60 -65 114 -65 120
-1 40 -49 427 -54 432 -3 4 -6 -14 -7 -38 0 -24 -12 -233 -27 -464 -27 -417
-27 -420 -49 -423 -16 -2 -28 6 -43 30 -19 32 -20 49 -20 488 l0 455 -31 92
c-31 94 -45 112 -53 71 -3 -13 -7 -185 -11 -383 -3 -198 -10 -603 -16 -900
l-10 -540 -66 -170 c-36 -93 -69 -174 -74 -179 -14 -16 -25 32 -44 197 -10 87
-21 154 -25 150 -4 -4 -19 -98 -34 -208 -36 -264 -36 -265 -51 -265 -7 0 -19
15 -28 33 -11 25 -16 97 -21 327 -26 1251 -26 1240 -48 1335 -25 110 -37 135
-38 80 0 -22 -7 -263 -15 -535 -12 -390 -23 -578 -51 -885 -19 -214 -37 -396
-39 -402 -7 -21 -24 -15 -39 15 -10 19 -17 107 -25 317 -6 160 -16 396 -21
525 -5 129 -17 424 -25 655 -11 294 -26 529 -51 783 -19 200 -34 368 -34 373
0 5 -4 9 -9 9 -14 0 -20 -120 -31 -645 -17 -809 -20 -874 -40 -880 -20 -6 -20
-8 -50 -350 -63 -715 -78 -867 -88 -877 -9 -9 -17 0 -31 33 -17 39 -19 80 -25
374 -3 182 -11 575 -17 875 -12 538 -12 546 -36 599 -13 30 -25 52 -27 50 -3
-2 -21 -220 -40 -484 -20 -264 -39 -490 -41 -502 -4 -16 -13 -23 -29 -23 -29
0 -28 -10 -57 377 -13 160 -26 290 -30 288 -3 -3 -12 -79 -20 -170 -7 -90 -16
-170 -20 -177 -8 -13 -33 -3 -112 44 l-38 22 -23 -29 -24 -29 -21 34 c-12 19
-23 44 -26 55 -2 11 -9 274 -15 585 -10 530 -18 768 -26 745 -3 -9 -94 -684
-94 -698 0 -14 -23 -6 -36 10 -14 21 -10 34 -49 -152 -34 -161 -34 -160 -50
-144 -18 20 -79 279 -111 472 -15 92 -29 165 -31 163 -2 -2 -11 -190 -19 -417
-16 -442 -20 -507 -35 -492 -5 5 -25 121 -45 258 -34 236 -39 264 -48 254 -3
-4 -13 -275 -37 -1019 -9 -276 -16 -374 -50 -650 -26 -212 -45 -330 -54 -339
-19 -20 -41 -7 -63 36 -21 40 -21 39 -53 983 -9 281 -14 339 -66 725 -31 231
-57 422 -59 424 -2 2 -11 -2 -20 -9 -12 -10 -17 -11 -23 -2 -4 6 -18 89 -30
184 -13 95 -27 179 -31 186 -7 14 -11 -102 -30 -928 -6 -245 -13 -455 -16
-468 -8 -37 -45 -25 -71 24 -26 46 -27 67 -53 1004 -9 310 -18 452 -41 659
-16 145 -30 266 -32 268 -5 5 -15 -315 -28 -977 -7 -331 -16 -570 -22 -577 -5
-7 -23 -13 -39 -13 -16 0 -30 -6 -33 -12 -3 -12 -18 -413 -32 -863 -3 -110
-10 -210 -14 -223 -9 -23 -9 -23 -40 -5 -17 10 -46 32 -64 48 l-33 30 -36 795
c-39 843 -42 900 -57 900 -5 0 -9 -225 -9 -568 l0 -568 -38 -114 c-24 -71 -44
-116 -54 -118 -8 -2 -33 23 -58 59 -26 37 -45 57 -48 48 -10 -40 -47 -109 -56
-106 -6 2 -20 19 -30 37 -22 37 -20 -10 -46 1180 -11 501 -14 561 -51 945 -22
225 -42 411 -44 413 -18 18 -24 -115 -34 -718 -7 -377 -16 -926 -21 -1220 -6
-294 -10 -557 -10 -583 0 -57 -16 -59 -42 -6 -13 24 -18 58 -18 114 l0 81 -60
82 -60 81 -10 248 c-14 323 -70 1851 -70 1891 0 42 -18 41 -24 0z"/>
</g>
</svg>
